<svg t="1717036519921" class="icon" viewBox="0 0 1024 1024" version="1.1" xmlns="http://www.w3.org/2000/svg" p-id="3541" width="32" height="32"><path d="M351.232 908.544c-72.6016 0-145.2032 0.1024-217.8048-0.1024-8.7552 0-17.5104-1.4336-26.3168-2.2016-22.4256-1.9968-34.6624-25.1392-30.72-41.5232 16.896-70.4512 49.0496-130.1504 119.552-160.6144 13.824-5.9904 28.9792-8.8576 43.4688-13.5168 5.7344-1.8432 9.984 0 14.336 3.4816 16.7936 13.3632 25.2416 22.6816 45.9264 28.2112 2.5088 0.6656 5.12 1.2288 7.68 1.536 6.2976 0.768 10.496 3.8912 14.2336 9.216 15.2064 21.5552 55.5008 25.088 76.8512 9.6768 6.7584-4.9152 15.9744-6.656 24.32-9.0624 22.1696-6.3488 44.4928-12.2368 66.7136-18.3808 2.048-0.5632 4.352-0.9728 5.9904-2.2016 9.2672-6.9632 17.2032-3.4304 25.9072 1.792 37.376 22.4768 62.8736 54.7328 79.0016 94.72 5.8368 14.5408 10.752 29.4912 15.7696 44.3904 9.8816 29.3376-7.0144 53.248-37.8368 53.4528-55.2448 0.4096-110.4384 0.6144-165.6832 0.8704-20.48 0.1024-40.96 0-61.44 0 0.0512 0.1536 0.0512 0.2048 0.0512 0.256zM819.3024 355.9424c-0.3584 47.4624-9.6256 87.04-32.5632 122.7264-11.5712 18.0224-26.0608 33.2288-44.1344 45.0048-3.8912 2.5088-6.7584 2.816-10.9056 0.3584-20.224-12.032-44.6464-7.8336-59.8528 10.1888-2.8672 3.3792-5.5808 4.7616-9.7792 3.1744-7.7824-2.9184-15.5648-5.7344-23.3472-8.5504-3.4816-1.2288-4.5056-3.1744-3.4816-7.0144 12.288-45.7216-14.8992-91.2384-57.6512-104.6528-4.9664-1.536-7.2192-3.7888-7.4752-9.4208-0.9728-22.272-6.1952-43.6224-13.8752-64.6144-2.048-5.5808-1.4848-12.6464-0.4608-18.7392 7.2192-43.4688 24.1664-82.2272 58.3168-111.4624 32.1024-27.4944 68.6592-36.096 109.056-20.992 25.8048 9.6768 45.2608 27.6992 60.7232 50.1248 24.6784 35.9424 34.7136 76.288 35.4304 113.8688z" fill="#ffffff" p-id="3542"></path><path d="M550.2464 543.6416a20.45952 20.45952 0 0 0-19.4048-21.504c-11.4176-0.4096-20.9408 8.1408-21.504 19.4048-0.256 4.8128-7.2192 112.64-119.5008 131.0208a32.7424 32.7424 0 0 0-24.0128-9.9328c-18.0736 0.3584-32.4608 15.2576-32.1024 33.3312 0.3584 18.0736 15.2576 32.4608 33.3312 32.1024a32.59392 32.59392 0 0 0 26.624-14.6432c117.1968-17.7664 153.856-117.0432 156.5696-169.7792zM885.4528 426.2912c0.768-11.264-7.7312-21.0944-18.9952-21.8624a20.44416 20.44416 0 0 0-21.8624 18.9952c-0.3072 4.7616-9.0112 109.4656-117.0944 128.1024a32.69632 32.69632 0 0 0-23.1936-9.6256c-18.0736 0-32.7168 14.6432-32.7168 32.7168s14.6432 32.7168 32.7168 32.7168c11.52 0 21.6576-5.9904 27.4944-15.0016 112.7936-18.176 150.0672-114.2784 153.6512-166.0416z" fill="#ffffff" p-id="3543"></path><path d="M560.3328 442.6752c-5.632-0.8192-8.2944-3.5328-12.1344-7.4752-4.0448-4.1472-5.632-8.3968-6.2464-12.9024h0.0512c-0.1536-1.1264-0.256-2.0992-0.3584-3.3792-3.1232-35.7888-10.0352-69.3248-29.952-98.9696-37.5808-55.9616-90.88-84.992-162.7648-88.6272-9.2672 1.0752-23.1424 1.6896-36.608 4.352-38.656 7.68-72.96 24.7296-101.888 51.5072-36.2496 33.536-56.9344 74.5472-57.344 124.672-0.0512 8.4992 0.4096 16.128-6.656 23.3472-3.84 3.9424-6.5024 6.6048-12.1344 7.4752-34.6112 5.1712-57.1392 42.0864-45.824 75.1104 7.7824 22.7328 23.9104 35.9424 47.616 40.0896 2.8672 0.512 6.7072 1.8944 8.0384 4.096 6.7072 11.3664 15.9232 16.3328 27.0336 13.5168 10.3936-2.6112 17.2544-11.9296 17.3056-24.2688 0.1024-34.048 0.3072-68.096-0.2048-102.144-0.1024-5.5296-3.6352-11.008-5.4272-16.5888-0.9216-2.9696-2.6112-6.2976-1.9968-9.0624 8.9088-41.7792 29.44-77.1584 62.976-103.3728 48.0768-37.5296 102.5536-45.7216 159.744-25.7536 60.672 21.1456 94.5664 66.5088 109.7728 127.4368 0.1024 0.5632 0.256 1.1264 0.4096 1.6896 0.6144 2.7648-1.0752 6.0928-1.9968 9.0624-1.7408 5.5808-5.3248 11.0592-5.4272 16.5888-0.512 34.048-0.3584 68.096-0.2048 102.144 0.0512 12.288 6.9632 21.6064 17.3056 24.2688 11.1104 2.816 20.3264-2.1504 27.0336-13.5168 1.28-2.2016 5.1712-3.584 8.0384-4.096 23.7056-4.096 39.8336-17.3056 47.616-40.0896 11.3664-33.024-11.1616-69.9392-45.7728-75.1104zM897.9456 312.2176c-5.632-0.8192-8.2944-3.5328-12.1344-7.4752-3.6864-3.7376-5.2736-7.5776-6.0416-11.6224-0.1536-22.272-4.4544-43.6736-12.6976-64.3072-18.5344-46.336-49.7152-81.664-95.1296-102.7584-58.1632-27.0848-117.1456-25.6-174.592 1.6896-53.248 25.2416-86.4768 67.9424-100.608 125.2352-0.512 1.9968-0.4096 5.1712 0.8192 6.4512 8.0896 8.2944 16.5376 16.2304 25.088 24.5248 1.1776-3.2256 2.304-6.2976 3.4304-9.4208 23.04-61.5424 66.048-100.096 131.1232-112.1792 88.32-16.4352 171.008 37.7856 192.5632 123.8016 0.1024 0.3072 0.1536 0.6656 0.2048 0.9728 0.512 1.9968 0.9216 4.0448 1.3824 6.0928 0.4096 2.7136-1.0752 5.9392-1.9968 8.8064-1.7408 5.5808-5.3248 11.0592-5.4272 16.5888-0.512 34.048-0.3584 68.096-0.2048 102.144 0.0512 12.288 6.9632 21.6064 17.3056 24.2688 11.1104 2.816 20.3264-2.1504 27.0336-13.5168 1.28-2.2016 5.12-3.584 8.0384-4.096 23.7568-4.096 39.8336-17.3056 47.616-40.0896 11.3664-33.024-11.1104-69.9392-45.7728-75.1104zM951.8592 740.5056c-4.608-17.152-10.7008-34.048-17.5104-50.4832-16.7424-40.6528-42.0864-72.6528-78.0288-93.696-9.5232-3.84-19.968-5.376-30.464-5.4272-33.6384 10.4448-64.768 18.0224-79.0528 21.2992-6.9632 10.7008-17.408 17.5616-31.7952 19.8144-19.9168 3.072-35.84-4.1984-47.2064-21.248-1.536-2.304-4.4032-4.1472-7.0656-5.12-15.5648-5.7344-31.3344-10.9056-46.7968-16.896-3.8912-1.536-6.144-1.0752-9.5744 0.8704-9.4208 5.4272-19.0464 10.6496-28.9792 14.9504-4.4544 1.9456-6.2464 3.9424-6.3488 8.704-0.4096 16.128-3.4304 31.744-10.6496 46.2848-4.096 8.192-9.2672 15.872-14.08 24.064 2.3552 1.6896 4.352 3.2768 6.5536 4.7104 34.7136 22.9376 61.696 52.8384 80.2816 90.0608 3.1744 6.3488 7.0656 8.0384 13.824 8.0384 87.8592-0.2048 175.7696-0.1536 263.6288-0.1536 3.584 0 7.1168-0.256 10.7008-0.6144 23.04-2.4064 38.5536-22.9376 32.5632-45.1584z" fill="#ffffff" p-id="3544"></path><path d="M474.6752 434.7904c-8.8576-41.4208-27.5456-77.824-63.5904-102.2464-38.7072-26.2656-79.4624-28.5696-120.3712-5.0688-35.4816 20.3776-54.0672 53.504-66.56 91.1872-7.424 22.4768-6.8608 45.4144-5.9392 68.5056 0 14.7456-1.9456 29.7984 0.4096 44.1856 5.1712 31.6416 17.6128 60.672 37.7856 85.9136 14.7456 18.4832 32.4096 32.768 54.1184 41.0112 3.328 1.28 7.0144-0.256 8.96-3.2768 4.6592-7.2704 12.4928-14.592 25.5488-19.712 23.1424-9.0112 40.6016-2.816 50.1248 2.7136 1.6896 0.9728 3.6352 1.2288 5.5296 0.7168 8.0896-2.0992 16.2304-4.7104 24.32-6.656 0.6144-0.1536 1.1264-0.8704 1.536-1.4336 8.7552-10.9056 18.4832-21.1968 26.0608-32.8704 14.5408-22.3744 21.0944-47.7184 23.3472-74.1376 2.5088-29.6448 4.9664-59.4944-1.28-88.832z" fill="#ffffff" p-id="3545"></path></svg>