<svg t="1716192168968" class="icon" viewBox="0 0 1024 1024" version="1.1" xmlns="http://www.w3.org/2000/svg" p-id="3681" width="20" height="20"><path d="M458.666667 597.333333A96 96 0 0 1 554.666667 693.333333v64.085334l-0.341334 4.608c-13.226667 90.752-94.72 134.357333-231.466666 134.357333-136.234667 0-219.050667-43.093333-236.928-132.778667L85.333333 757.333333v-64A96 96 0 0 1 181.333333 597.333333h277.333334zM320 256a149.333333 149.333333 0 1 1 0 298.666667 149.333333 149.333333 0 0 1 0-298.666667z m522.666667-170.666667A96 96 0 0 1 938.666667 181.333333v149.333334A96 96 0 0 1 842.666667 426.666667h-66.261334l-108.416 94.165333A42.666667 42.666667 0 0 1 597.333333 488.618667V426.069333a96 96 0 0 1-85.333333-95.402666v-149.333334A96 96 0 0 1 608 85.333333h234.666667z" fill="#fff" p-id="3682"></path></svg>